<svg width="23" height="22" viewBox="0 0 23 22" fill="none" xmlns="http://www.w3.org/2000/svg">
<path d="M2.55541 13.222V3C2.55541 2.46957 2.76612 1.96086 3.14119 1.58579C3.51626 1.21071 4.02497 1 4.55541 1H18.1554C18.6858 1 19.1945 1.21071 19.5696 1.58579C19.9447 1.96086 20.1554 2.46957 20.1554 3V13.222M2.55541 13.222H20.1554M2.55541 13.222L1.07541 18.456C0.991348 18.7534 0.977348 19.0662 1.0345 19.3699C1.09166 19.6736 1.21842 19.9599 1.40483 20.2064C1.59124 20.4529 1.83223 20.6528 2.1089 20.7905C2.38556 20.9282 2.69037 20.9999 2.99941 21H19.7114C20.0204 20.9999 20.3252 20.9282 20.6019 20.7905C20.8786 20.6528 21.1196 20.4529 21.306 20.2064C21.4924 19.9599 21.6192 19.6736 21.6763 19.3699C21.7335 19.0662 21.7195 18.7534 21.6354 18.456L20.1554 13.222" stroke="white"/>
<path d="M10.3555 18H12.3555M13.3555 5L15.3555 7L13.3555 9M9.35547 5L7.35547 7L9.35547 9" stroke="white" stroke-linecap="round" stroke-linejoin="round"/>
</svg>
