<svg width="75" height="76" viewBox="0 0 75 76" fill="none" xmlns="http://www.w3.org/2000/svg">
<path fill-rule="evenodd" clip-rule="evenodd" d="M37.4389 75.5C58.0664 75.4687 74.7646 58.6892 74.7646 37.9912C74.7646 17.6297 58.1435 0.860491 38.2863 0.506016C17.4318 0.134089 0.00541805 17.0562 1.63357e-06 37.5766C-0.00601661 58.688 16.6176 75.53 37.4389 75.5ZM37.3781 2.32172C57.1823 2.3151 72.9616 18.4055 72.9556 38.5997C72.9489 57.6649 56.7514 73.6138 37.3926 73.6181C17.6702 73.6223 1.80969 57.6318 1.81029 37.7445C1.81149 18.37 17.9187 2.32834 37.3781 2.32172ZM22.4312 21.1384C22.755 22.2174 21.8486 22.593 20.8851 22.6682C19.871 22.7464 18.8576 22.8229 17.6804 22.9125C21.5658 34.488 25.3928 45.892 29.3107 57.5614C29.5899 57.1046 29.7048 56.9758 29.7554 56.8253C31.9063 50.3967 34.0693 43.9722 36.1654 37.5254C36.3568 36.9375 36.2617 36.1587 36.0523 35.5545C34.9431 32.3528 33.6143 29.2209 32.6418 25.9806C31.9767 23.7623 31.0945 22.327 28.4723 22.5839C28.0258 22.6279 27.4805 21.6668 26.9804 21.1703C27.5852 20.8092 28.1858 20.1447 28.7961 20.1357C34.1356 20.0537 39.476 20.0553 44.8155 20.1405C45.4281 20.1508 46.0287 20.8326 46.6336 21.2028C46.104 21.6866 45.6472 22.4124 45.0279 22.5996C44.0343 22.8993 42.9324 22.8427 41.7431 22.9486L53.3878 57.5897C55.1518 51.7303 56.793 46.35 58.389 40.9558C59.8129 36.1406 58.9644 31.6438 56.3897 27.4028C55.6158 26.1275 54.6649 24.8901 54.2262 23.4993C53.7279 21.9171 53.3138 20.1159 53.578 18.5289C54.0264 15.8393 56.09 14.5039 58.8825 14.2481C43.601 0.0654816 19.587 5.14247 10.7384 20.5522C14.1447 20.3951 17.3969 20.1887 20.6516 20.1441C21.2667 20.1363 22.2868 20.6563 22.4312 21.1384ZM28.5199 68.0632C28.4488 68.2708 28.4446 68.5019 28.3887 68.8468C34.9744 70.6727 41.4332 70.5409 48.0436 68.3136L37.945 40.6537C34.7132 50.0488 31.6138 59.0545 28.5199 68.0632ZM23.4308 66.8126L8.21611 25.0761C1.3523 38.4835 6.57373 58.9396 23.4308 66.8126ZM69.4271 39.9941C69.9097 33.6545 67.7227 24.8769 65.8342 23.6696C65.6235 26.0017 65.7704 28.5962 65.1012 30.9601C63.5262 36.53 61.6003 42.003 59.7455 47.491C57.7294 53.4563 55.6339 59.3945 53.5726 65.3448C63.2572 59.604 68.5791 51.1309 69.4271 39.9941Z" fill="url(#paint0_linear_902_239)"/>
<defs>
<linearGradient id="paint0_linear_902_239" x1="1.82731e-06" y1="60.6824" x2="53.2615" y2="75.7281" gradientUnits="userSpaceOnUse">
<stop offset="0.105" stop-color="#EEB24D"/>
<stop offset="0.5" stop-color="#910CBF"/>
<stop offset="0.84" stop-color="#C86C6C"/>
</linearGradient>
</defs>
</svg>
