<svg width="88" height="77" viewBox="0 0 88 77" fill="none" xmlns="http://www.w3.org/2000/svg">
<path d="M82.59 66.6781L82.81 64.8281L83.26 61.1281L86.78 31.5481L87.65 24.1481L87.87 22.2981C87.98 21.4181 87.99 20.3781 87.83 19.4181C87.55 17.4781 86.6 15.4581 85.05 14.0181C83.61 12.6181 81.65 11.6781 79.63 11.4381C77.6 11.1881 75.5 11.6081 73.73 12.6381C73.51 12.7681 73.3 12.9081 73.09 13.0481L72.65 13.3581L71.9 13.9081L70.39 14.9981L67.37 17.1781L64.35 19.3581L62.9 20.3981C62.73 20.5281 62.55 20.5881 62.36 20.6481C61.99 20.7681 61.55 20.7081 61.18 20.5481C60.99 20.4681 60.83 20.3481 60.69 20.2081C60.61 20.1481 60.56 20.0581 60.49 19.9781C60.46 19.9281 60.44 19.8881 60.4 19.8481L60.18 19.4581L52.93 6.44813L51.92 4.63813C51.41 3.79813 50.77 3.00813 50 2.31813C49.23 1.62813 48.31 1.04814 47.28 0.638135C46.26 0.258135 45.28 0.0481349 44.22 0.0081349C42.12 -0.0818651 39.99 0.578135 38.31 1.82813C37.47 2.44813 36.73 3.21813 36.14 4.09813L35.73 4.76813L35.49 5.20813L35.02 6.05814L27.46 19.6681C27.36 19.8481 27.33 19.8881 27.31 19.9281C27.28 19.9781 27.26 20.0281 27.22 20.0681C27.16 20.1581 27.08 20.2281 27.01 20.3081C26.85 20.4481 26.67 20.5581 26.46 20.6381C26.05 20.7981 25.59 20.8081 25.2 20.6481C25.1 20.6181 25.01 20.5581 24.91 20.5081L24.74 20.3981L24.34 20.1181L22.76 18.9881L19.59 16.7281L16.42 14.4681L14.8 13.3081C13.98 12.7381 13.08 12.2881 12.11 11.9781C11.14 11.6681 10.09 11.5081 9.02 11.5281C7.95 11.5481 6.83 11.7981 5.9 12.1781C3.96 12.9281 2.26 14.3981 1.23 16.2181C0.71 17.1281 0.34 18.1281 0.15 19.1681C0.0500001 19.6881 0 20.2081 0 20.7381C0 20.9981 -1.86265e-08 21.2681 0.02 21.5281L0.0900002 22.1981L0.57 26.0581L1.54 33.7881L3.47 49.2381L5.41 64.6881L5.65 66.6181L5.77 67.5881L5.83 68.0681L5.96 68.8281C6.38 70.8881 7.53 72.7881 9.15 74.1181C10.76 75.4581 12.85 76.2381 14.95 76.2481H18.9C25.73 76.2481 35.88 77.2281 36.31 73.5481C36.78 69.5681 26.17 70.6881 19.68 70.6381L15.87 70.6081C15.58 70.6081 15.17 70.6081 14.98 70.5981C14.78 70.5981 14.58 70.5581 14.38 70.5281C13.98 70.4481 13.61 70.2981 13.26 70.0881C12.57 69.6781 12.02 69.0281 11.73 68.2881C11.65 68.0981 11.6 67.9081 11.55 67.7181L11.5 67.4181L11.44 66.9681L11.21 65.0781L9.37 49.9581L7.5 34.8481L6.56 27.2881L6.09 23.5081L5.85 21.6181C5.8 21.2481 5.79 21.1081 5.78 20.9081C5.78 20.7081 5.79 20.5181 5.81 20.3281C6.01 18.7581 7.41 17.4481 8.95 17.3081C9.69 17.2381 10.53 17.4381 11.26 17.8781C11.35 17.9281 11.44 17.9881 11.53 18.0481L11.9 18.3081L12.68 18.8581L14.23 19.9581L20.43 24.3781C20.97 24.7481 21.36 25.0781 22.23 25.5881C23.01 26.0181 23.88 26.2981 24.77 26.4181C26.54 26.6781 28.39 26.2681 29.89 25.2981C30.64 24.8181 31.32 24.1981 31.84 23.4781C31.98 23.3081 32.09 23.1081 32.21 22.9281C32.34 22.7281 32.44 22.5481 32.5 22.4281L32.96 21.5981L34.81 18.2681L38.51 11.6081L40.36 8.27813L40.8 7.49814C40.9 7.32814 41.02 7.16813 41.14 7.00813C41.39 6.70813 41.7 6.43814 42.04 6.23814C43.4 5.40814 45.32 5.59813 46.39 6.75813C46.69 7.05813 46.92 7.37814 47.16 7.80814L48.08 9.47814L49.92 12.8081L53.6 19.4781L55.49 22.8781C56.39 24.4281 57.91 25.6181 59.61 26.1781C61.31 26.7381 63.22 26.6681 64.9 25.9781C65.31 25.7881 65.72 25.5981 66.09 25.3481L66.37 25.1681L66.57 25.0281L66.96 24.7581L68.51 23.6581L74.73 19.2681L76.29 18.1781C76.74 17.8681 76.97 17.7481 77.36 17.6181C78.07 17.3881 78.87 17.3981 79.56 17.6581C81.01 18.1981 81.88 19.5481 81.73 21.1981L80.73 28.5881C79.34 38.6381 77.92 48.6881 76.44 58.7281L75.32 66.2581L75.18 67.1981C75.14 67.3781 75.12 67.4881 75.07 67.6181C74.98 67.8781 74.85 68.1081 74.68 68.3181C74.35 68.7381 73.88 69.0381 73.38 69.1481C73.26 69.1781 73.13 69.1981 73 69.1981C72.94 69.2081 72.87 69.1981 72.81 69.1981H72.51L70.61 69.1381L66.81 69.0281L59.21 68.7881C49.75 68.4681 36.03 68.0881 36.34 73.0881C36.59 77.1881 49.56 76.7281 58.3 76.7481H65.75H69.47H71.33H72.26H72.74L73.53 76.7081C75.64 76.5281 77.69 75.6381 79.25 74.2181C80.82 72.8081 81.91 70.8581 82.31 68.7881L82.43 68.0581L82.49 67.5981L82.6 66.6781H82.59Z" fill="black"/>
</svg>
