<svg width="92" height="91" viewBox="0 0 92 91" fill="none" xmlns="http://www.w3.org/2000/svg">
<path d="M0.930947 41.4909C0.570947 41.4909 0.0309466 40.5109 0.000946555 44.1909C-0.0190534 48.1709 0.540947 47.0509 0.880947 47.1009C4.83095 47.6309 8.78095 46.4509 12.7309 48.3409V50.2809C12.7809 54.1309 12.7509 58.0009 13.4509 62.2509C13.5209 62.6609 13.6109 63.0809 13.7109 63.5109C12.2409 63.6509 10.7709 63.8309 9.30095 63.8309C6.58095 63.8309 3.86095 63.8109 1.14095 63.8509C0.690947 63.8509 0.0309466 62.8709 0.000946555 66.5509C-0.0290534 70.5309 0.660947 69.411 1.09095 69.461C6.41095 70.041 11.7409 68.5709 17.0509 71.3009C17.2409 71.4009 17.4709 71.511 17.6809 71.451C18.4809 72.381 19.3609 73.231 20.3209 74.021C20.3509 74.041 20.3809 74.061 20.4109 74.091C20.3709 76.6209 20.9009 79.1509 20.9009 81.6909C20.9909 81.6909 20.9409 81.6909 20.9009 81.6909C20.9009 84.4109 20.8809 87.131 20.9209 89.851C20.9209 90.301 19.9409 90.961 23.6209 90.991C27.6009 91.021 26.4809 90.3309 26.5309 89.9009C26.9809 85.7509 26.1909 81.5909 27.1209 77.4309C29.1409 77.9509 31.0709 78.1909 32.9309 78.3309C35.5109 78.5109 38.5609 78.801 41.0709 78.631C41.1909 80.231 41.5209 81.8309 41.5209 83.4309C41.5209 85.6409 41.5009 87.851 41.5409 90.061C41.5409 90.421 40.5609 90.961 44.2409 90.991C48.2209 91.011 47.1009 90.4509 47.1509 90.1109C47.6809 86.1109 46.4709 82.101 48.4609 78.101C49.3709 78.431 50.4809 78.6609 51.7109 78.8009C54.9509 79.1609 59.051 79.0109 62.701 78.4109C63.011 78.3609 63.3309 78.2909 63.6509 78.2309C63.7709 79.3909 63.881 80.541 63.881 81.701C63.841 81.701 63.791 81.701 63.881 81.701C63.881 84.421 63.8609 87.1409 63.9009 89.8609C63.9009 90.3109 62.9209 90.9709 66.6009 91.0009C70.5809 91.0309 69.4609 90.3409 69.5109 89.9109C70.0409 85.0409 68.8609 80.1609 70.7509 75.3009C71.1909 75.0009 71.6109 74.681 72.0109 74.351C72.8809 73.631 73.6909 72.8509 74.4309 72.0009C74.8409 71.5309 75.2109 71.0709 75.5709 70.5809C77.6209 70.4709 79.6709 70.1209 81.7309 70.1209C81.7309 70.2109 81.7309 70.1609 81.7309 70.1209C84.4509 70.1209 87.1709 70.141 89.8909 70.101C90.3409 70.101 91.0009 71.0809 91.0309 67.4009C91.0609 63.4309 90.3709 64.541 89.9409 64.491C86.1409 64.081 82.3309 64.701 78.5309 64.101C78.9009 62.601 79.1109 61.1409 79.2509 59.7509C79.5609 56.3009 79.5609 53.0709 79.5509 49.8809C80.8609 49.7309 82.1709 49.5209 83.4809 49.5209C85.6909 49.5209 87.9009 49.5409 90.1109 49.5009C90.4709 49.5009 91.0109 50.4809 91.0409 46.8009C91.0609 42.8209 90.5009 43.9409 90.1609 43.8909C86.6109 43.4209 83.061 44.3209 79.521 43.1409C79.501 41.2609 79.4709 39.3809 79.4309 37.4709C79.2909 34.2609 79.2409 30.9709 78.4109 27.3809C79.5209 27.2709 80.6409 27.1609 81.7509 27.1609C84.4709 27.1609 87.1909 27.1809 89.9109 27.1409C90.3609 27.1409 91.0209 28.1209 91.0509 24.4409C91.0809 20.4609 90.3909 21.5809 89.9609 21.5309C85.0109 20.9909 80.0409 22.2309 75.091 20.1909C74.941 20.0009 74.8009 19.8209 74.6409 19.6309C73.4609 18.2309 72.151 17.0109 70.631 15.9609C70.561 13.7409 70.1509 11.5209 70.1509 9.31095C70.2409 9.31095 70.1909 9.31095 70.1509 9.31095C70.1509 6.59095 70.171 3.87095 70.131 1.15095C70.131 0.700947 71.1109 0.0409468 67.4309 0.0109468C63.4509 -0.0190532 64.571 0.670946 64.521 1.10095C64.091 5.11095 64.8109 9.12095 64.0309 13.1309C63.7909 13.0809 63.5409 13.0309 63.3009 12.9809C61.2409 12.5909 59.2809 12.4509 57.3809 12.3509C54.8609 12.2409 52.4009 12.2209 49.9709 12.2209C49.8409 10.6709 49.5309 9.12095 49.5309 7.56095C49.5309 5.35095 49.5509 3.14095 49.5109 0.930946C49.5109 0.570946 50.4909 0.0309466 46.8109 0.000946555C42.8309 -0.0190534 43.9509 0.540947 43.9009 0.880947C43.4009 4.65095 44.4509 8.43095 42.9109 12.2009C40.2209 12.2009 37.5009 12.2209 34.7109 12.3509C32.7209 12.4509 30.6809 12.6109 28.5309 13.0409C28.1809 13.1109 27.8209 13.2009 27.4609 13.2909C27.3309 11.9609 27.1809 10.6309 27.1809 9.30095C27.2709 9.30095 27.2209 9.30095 27.1809 9.30095C27.1809 6.58095 27.2009 3.86095 27.1609 1.14095C27.1609 0.690946 28.1409 0.0309466 24.4609 0.000946555C20.4809 -0.0290534 21.6009 0.660947 21.5509 1.09095C20.9709 6.41095 22.4409 11.7409 19.7109 17.0509C19.6409 17.1809 19.5709 17.3309 19.5509 17.4709C18.6009 18.3309 17.7209 19.2609 16.9409 20.2809C16.9109 20.3209 16.8809 20.3609 16.8509 20.4009C14.3409 20.3709 11.8309 20.8909 9.32095 20.8909C6.60095 20.8909 3.88095 20.8709 1.16095 20.9109C0.710947 20.9109 0.050947 19.9309 0.020947 23.6109C-0.00905299 27.5809 0.680947 26.4709 1.11095 26.5209C5.33095 26.9809 9.55095 26.1509 13.7709 27.1609C13.2909 29.1809 13.1009 31.0909 12.9709 32.9509C12.8409 34.9609 12.7909 36.9109 12.7709 38.8409V41.0309C11.0409 41.1209 9.31095 41.5009 7.58095 41.5009C5.37095 41.5009 3.16095 41.4809 0.950947 41.5209L0.930947 41.4909ZM20.5909 25.1209C21.3509 23.8009 22.4509 22.4909 23.6709 21.4509C24.9409 20.3609 26.2109 19.6209 27.7509 19.1309C29.2709 18.6209 30.9909 18.3809 32.7509 18.2209C36.2909 17.9109 40.0009 17.9309 43.7009 17.9209C47.4109 17.9309 51.1409 17.9109 54.7909 18.0209C58.4109 18.1609 62.0909 18.3509 64.9709 19.5309C67.6909 20.6409 70.3309 23.3009 71.5309 25.9709C72.7309 28.7609 72.9009 32.3809 72.9709 35.9909C73.0109 39.6209 72.9109 43.3409 72.8309 47.0509C72.7309 50.7509 72.6509 54.4609 72.2909 57.9509C72.1009 59.6909 71.8109 61.3509 71.3509 62.8009C71.1109 63.5209 70.841 64.1809 70.491 64.7609C70.341 65.0709 70.131 65.3309 69.951 65.6109C69.741 65.9109 69.5009 66.2009 69.2609 66.4809C68.2909 67.5909 67.1209 68.5609 65.8909 69.2509C64.7709 69.8809 63.461 70.241 61.921 70.461C59.071 70.881 54.9109 70.7609 51.6309 71.2909C48.3309 71.8009 45.8609 72.951 45.9709 75.451C45.9709 75.631 46.0309 75.791 46.0709 75.951C46.0309 75.951 45.9909 75.951 45.9509 75.951C45.9509 75.931 45.9509 75.9209 45.9609 75.9009C46.3109 71.9009 38.5009 73.131 33.9209 72.781C30.3209 72.501 26.9509 71.9609 24.5109 70.0409C23.2109 69.0709 22.0709 67.8909 21.1509 66.5509C20.2609 65.2709 19.7109 63.8509 19.3509 62.2109C18.6609 58.9309 18.6109 55.2309 18.5609 51.5709V40.4609C18.5809 36.7809 18.6009 33.0809 19.1409 29.6909C19.4109 28.0009 19.8909 26.4609 20.6209 25.1309L20.5909 25.1209Z" fill="black"/>
</svg>
