<svg width="36" height="36" viewBox="0 0 36 36" fill="none" xmlns="http://www.w3.org/2000/svg">
<path d="M3 22.5C3.39782 22.5 3.77936 22.658 4.06066 22.9393C4.34196 23.2206 4.5 23.6022 4.5 24C4.5 24.3978 4.34196 24.7794 4.06066 25.0607C3.77936 25.342 3.39782 25.5 3 25.5C2.60218 25.5 2.22064 25.342 1.93934 25.0607C1.65804 24.7794 1.5 24.3978 1.5 24C1.5 23.6022 1.65804 23.2206 1.93934 22.9393C2.22064 22.658 2.60218 22.5 3 22.5ZM31.5 25.5H28.5V13.5H25.5V10.5H34.5V13.5H31.5V25.5ZM24 10.5V13.5H21V16.5H24V19.5H21V22.5H24V25.5H18V10.5H24ZM16.5 10.5V25.5H13.5L9 16.5V25.5H6V10.5H9L13.5 19.5V10.5H16.5Z" fill="#73D393"/>
</svg>
