<svg width="31" height="31" viewBox="0 0 31 31" fill="none" xmlns="http://www.w3.org/2000/svg">
<path d="M17.9375 17.375H17.65C17.425 17.5125 17.325 17.775 17.425 18L18.5 20.6375C19.5375 19.975 20.325 18.9875 20.7375 17.825L17.95 17.375H17.9375ZM13.625 17.7375C13.55 17.525 13.3625 17.375 13.15 17.375H13.05L10.275 17.8375C10.6875 18.9875 11.475 19.9625 12.5125 20.625L13.575 18.0375V18C13.625 17.9375 13.625 17.825 13.625 17.7375ZM15.9125 18.75C15.7875 18.525 15.5 18.4375 15.275 18.5625C15.1875 18.625 15.125 18.6625 15.0875 18.75H15.075L13.7125 21.2125C14.6875 21.5375 15.7375 21.6 16.75 21.3625C16.925 21.325 17.1125 21.275 17.2875 21.2125L15.925 18.75H15.9125ZM20.225 13.0375L18.125 14.875L18.1375 14.9125C17.9375 15.0875 17.9125 15.3875 18.0875 15.575C18.15 15.65 18.225 15.7 18.3125 15.725L18.325 15.7375L21.0375 16.5125C21.125 15.3 20.8625 14.075 20.225 13.0375ZM16.3375 13.2375C16.35 13.5 16.5625 13.7 16.825 13.6875C16.925 13.6875 17.0125 13.6625 17.0875 13.625H17.1L19.3875 11.9875C18.5125 11.125 17.375 10.5875 16.175 10.4375L16.3375 13.2375ZM13.9125 13.625C14.125 13.7625 14.4125 13.725 14.5625 13.5125C14.625 13.4375 14.65 13.35 14.6625 13.25H14.675L14.825 10.4375C14.6375 10.4625 14.45 10.5 14.25 10.5375C13.25 10.7625 12.325 11.2625 11.6 11.9875L13.9 13.625H13.9125ZM12.675 15.7375C12.925 15.675 13.075 15.4125 13 15.1625C13 15.0625 12.9375 14.9875 12.8625 14.925V14.9125L10.7625 13C10.1125 14.075 9.83748 15.3 9.97498 16.525L12.675 15.75V15.7375ZM14.725 16.5625L15.5 16.9375L16.275 16.5625L16.4625 15.725L15.925 15.0625H15.0625L14.525 15.725L14.725 16.5625ZM28.3375 18.2125L26.125 8.62499C26.0125 8.09999 25.6625 7.67499 25.2 7.44999L16.2375 3.16249C15.775 2.94999 15.225 2.94999 14.75 3.16249L5.79998 7.44999C5.33748 7.67499 4.98748 8.09999 4.87498 8.62499L2.66248 18.2125C2.59998 18.4625 2.59998 18.7125 2.66248 18.95C2.67498 19.025 2.69998 19.1 2.72498 19.175C2.76248 19.2875 2.82498 19.4125 2.88748 19.5125C2.92498 19.5625 2.94998 19.6125 2.99998 19.65L9.18748 27.375C9.21248 27.375 9.24998 27.425 9.24998 27.45C9.37498 27.5625 9.48748 27.65 9.59998 27.725C9.74998 27.825 9.92498 27.9 10.1 27.9375C10.2375 28 10.3875 28 10.5 28H20.65C20.7375 28 20.825 27.9625 20.9 27.9375C20.9625 27.925 21.025 27.9 21.075 27.8875C21.125 27.8625 21.1625 27.85 21.2125 27.825C21.275 27.8 21.3375 27.7625 21.4 27.725C21.55 27.625 21.6875 27.5 21.8125 27.375L22 27.125L28 19.65C28.125 19.5 28.2125 19.3375 28.275 19.175C28.3 19.1 28.325 19.025 28.3375 18.95C28.4 18.7125 28.4 18.45 28.3375 18.2125ZM19.05 21.95C19.075 22.025 19.1 22.1 19.1375 22.1625C19.0875 22.2625 19.0625 22.375 19.1 22.4875C19.25 22.7875 19.3875 23.0625 19.575 23.3375C19.675 23.475 19.775 23.625 19.875 23.7625C19.875 23.8 19.9125 23.8625 19.925 23.9125C20.075 24.1625 20 24.4875 19.7375 24.65C19.475 24.8125 19.15 24.7125 19 24.4625C18.9875 24.425 18.975 24.4 18.9625 24.3625C18.9375 24.325 18.9125 24.25 18.8875 24.25C18.825 24.0625 18.775 23.9 18.7375 23.7375C18.625 23.425 18.525 23.125 18.3625 22.8375C18.3 22.75 18.2 22.6875 18.1 22.6625L18 22.4625C16.3875 23.0625 14.625 23.0625 13.0375 22.45L12.9125 22.675C12.825 22.6875 12.7375 22.725 12.675 22.7875C12.5 23.0875 12.375 23.4 12.2625 23.75C12.225 23.9125 12.175 24.075 12.1125 24.25C12.0875 24.25 12.0625 24.3375 12.0375 24.375C11.9375 24.65 11.6375 24.8 11.35 24.7C11.075 24.6 10.925 24.3 11.025 24.0125C11.0375 23.975 11.0625 23.95 11.075 23.9125C11.125 23.875 11.125 23.8125 11.125 23.775C11.2375 23.625 11.325 23.4875 11.425 23.3375C11.625 23.075 11.7875 22.775 11.9125 22.475C11.925 22.375 11.9125 22.2625 11.875 22.1625L11.9625 21.9375C10.5 21.0625 9.39998 19.7 8.87498 18.075L8.62498 18.1125C8.54998 18.05 8.43748 18 8.33748 18C7.99998 18.0625 7.69998 18.1625 7.37498 18.275C7.23748 18.35 7.07498 18.4125 6.91248 18.4625C6.87498 18.475 6.82498 18.4875 6.74998 18.5C6.47498 18.5875 6.17498 18.4375 6.07498 18.1625C5.98748 17.875 6.12498 17.575 6.42498 17.475C6.44998 17.475 6.48748 17.4625 6.52498 17.4625V17.45H6.53748L6.67498 17.425C6.84998 17.375 7.02498 17.375 7.18748 17.375C7.51248 17.375 7.83748 17.3 8.14998 17.225C8.24998 17.1625 8.32498 17.0875 8.38748 16.9875L8.62498 16.925C8.36248 15.225 8.74998 13.5125 9.69998 12.0875L9.52498 11.9375C9.52498 11.825 9.48748 11.7125 9.42498 11.625C9.17498 11.4125 8.91248 11.225 8.62498 11.0625C8.47498 10.9875 8.32498 10.9 8.17498 10.8C8.14998 10.775 8.09998 10.7375 8.07498 10.7125L8.06248 10.7C7.81248 10.5 7.74998 10.175 7.92498 9.91249C8.03748 9.78749 8.18748 9.72499 8.36248 9.72499C8.49998 9.73749 8.62498 9.78749 8.73748 9.87499L8.84998 9.96249C8.97498 10.075 9.08748 10.2125 9.19998 10.3375C9.42498 10.575 9.66248 10.8 9.92498 10.9875C10.025 11.0375 10.1375 11.05 10.25 11.025L10.4375 11.1625C11.375 10.1625 12.6 9.46249 13.9375 9.16249C14.25 9.08749 14.5875 9.03749 14.9125 9.01249L14.925 8.78749C15.0125 8.71249 15.0625 8.62499 15.1 8.49999C15.1125 8.17499 15.0875 7.84999 15.0375 7.53749C15 7.37499 14.975 7.19999 14.9625 7.02499V6.87499C14.9375 6.57499 15.15 6.31249 15.45 6.27499C15.75 6.23749 16 6.46249 16.0375 6.74999V7.02499C16.025 7.19999 16 7.37499 15.9625 7.53749C15.9125 7.84999 15.8875 8.17499 15.9 8.49999C15.925 8.62499 15.9875 8.71249 16.075 8.77499L16.0875 9.01249C17.7875 9.16249 19.3625 9.92499 20.5375 11.1625L20.7375 11.0125C20.85 11.0375 20.9625 11.025 21.0625 10.975C21.325 10.7875 21.575 10.5625 21.7875 10.325C21.9 10.2 22.0125 10.075 22.1375 9.94999C22.175 9.92499 22.225 9.87499 22.2625 9.87499C22.475 9.64999 22.8125 9.64999 23 9.87499C23.2375 10.075 23.225 10.4125 23 10.625C23 10.65 22.9625 10.675 22.925 10.7C22.9 10.725 22.85 10.7625 22.8125 10.7875C22.675 10.8875 22.525 10.975 22.375 11.05C22.0875 11.2125 21.8125 11.4 21.575 11.6125C21.5 11.7 21.4625 11.8 21.475 11.9125L21.275 12.0875C22.2375 13.5 22.625 15.225 22.375 16.9125L22.6125 16.975C22.6625 17.075 22.75 17.15 22.85 17.2C23.1625 17.2875 23.4875 17.3375 23.8125 17.375H24.325C24.3625 17.4125 24.425 17.425 24.475 17.4375C24.775 17.475 24.975 17.75 24.9375 18.05C24.875 18.3375 24.6375 18.55 24.3375 18.5125C24.3 18.5 24.25 18.5 24.25 18.4875V18.475C24.175 18.475 24.125 18.4625 24.075 18.45C23.9125 18.4 23.7625 18.3375 23.625 18.2625C23.3 18.1375 23 18.05 22.6625 18C22.55 18 22.45 18 22.375 18.1C22.2875 18.0875 22.2125 18.075 22.1375 18.0625C21.625 19.7 20.5 21.075 19.05 21.95Z" fill="#73D393"/>
</svg>
