<svg width="130" height="38" viewBox="0 0 130 38" fill="none" xmlns="http://www.w3.org/2000/svg">
<g clip-path="url(#clip0_207_380)">
<path fill-rule="evenodd" clip-rule="evenodd" d="M17.5558 22.3764V8.25107C17.5558 8.25107 17.5558 6.53613 15.8403 6.53613H1.71494C1.71494 6.53613 0 6.53613 0 8.25107V35.7966L8.21978 24.8362C8.51969 24.3875 9.03064 24.0917 9.61049 24.0917H15.8403C15.8403 24.0917 17.5558 24.0917 17.5558 22.3764Z" fill="#F5BC45"/>
<path fill-rule="evenodd" clip-rule="evenodd" d="M32.024 20.9032C32.7573 20.9032 33.437 20.7403 34.0617 20.4183C34.6885 20.0941 35.2171 19.6616 35.6496 19.1246C36.0798 18.5838 36.4199 17.9704 36.6686 17.2791C36.9164 16.5881 37.0397 15.8771 37.0397 15.1433C37.0397 14.3663 36.9051 13.6339 36.6353 12.9437C36.3661 12.2521 35.9946 11.648 35.5202 11.1309C35.0443 10.6136 34.4844 10.2043 33.8353 9.90088C33.1892 9.59865 32.4979 9.44899 31.7661 9.44899C31.3139 9.44899 30.838 9.53381 30.3426 9.70779C29.8447 9.88091 29.3766 10.1174 28.934 10.4194C28.4917 10.7213 28.1104 11.0719 27.7862 11.4717C27.4622 11.8697 27.2353 12.308 27.1059 12.7825V17.2143C27.321 17.7313 27.6026 18.2165 27.9474 18.6701C28.2925 19.1246 28.681 19.5114 29.1129 19.8347C29.5442 20.1584 30.008 20.4183 30.5039 20.6109C30.9992 20.8057 31.507 20.9032 32.024 20.9032ZM33.1574 23.944C31.7979 23.944 30.6064 23.621 29.581 22.9734C28.5562 22.3267 27.7326 21.4848 27.1059 20.4505V30.514H23.5469V6.6971H26.6855V9.73964C27.3325 8.72613 28.1735 7.91643 29.2096 7.31313C30.2445 6.70868 31.4103 6.40674 32.7031 6.40674C33.8472 6.40674 34.9053 6.64354 35.8757 7.11802C36.8455 7.5922 37.6879 8.22937 38.3994 9.02807C39.1113 9.82504 39.6663 10.7531 40.0663 11.8112C40.4647 12.8679 40.6638 13.9775 40.6638 15.1433C40.6638 16.3733 40.4803 17.5205 40.1135 18.5902C39.7464 19.6573 39.23 20.5854 38.5624 21.3728C37.8917 22.1593 37.0999 22.7855 36.1825 23.2496C35.2657 23.7116 34.2583 23.944 33.1574 23.944Z" fill="white"/>
<path fill-rule="evenodd" clip-rule="evenodd" d="M49.499 21.324C50.3594 21.324 51.1749 21.1676 51.9414 20.8553C52.7071 20.5429 53.3061 20.1067 53.7377 19.5445C54.1905 19.1563 54.4163 18.7466 54.4163 18.3141V16.0825C53.8121 15.8445 53.172 15.6615 52.4917 15.5316C51.812 15.4021 51.1476 15.3373 50.5009 15.3373C49.2289 15.3373 48.1879 15.6126 47.3799 16.1629C46.5702 16.7141 46.1655 17.4416 46.1655 18.3486C46.1655 19.1878 46.477 19.8965 47.1046 20.4668C47.7299 21.0379 48.5278 21.324 49.499 21.324ZM48.5278 23.9444C47.7071 23.9444 46.9466 23.8101 46.2457 23.5414C45.5443 23.2705 44.9398 22.8991 44.4347 22.4231C43.9278 21.9507 43.5277 21.3888 43.237 20.7424C42.9455 20.0942 42.8008 19.3931 42.8008 18.6395C42.8008 17.8402 42.971 17.1168 43.3175 16.4707C43.6626 15.8231 44.1539 15.2635 44.7896 14.7879C45.4267 14.3142 46.1814 13.9466 47.0554 13.6887C47.9288 13.4299 48.8951 13.299 49.9512 13.299C50.7496 13.299 51.5367 13.3694 52.3134 13.5092C53.0898 13.6499 53.7898 13.8389 54.4163 14.0763V12.9122C54.4163 11.6593 54.0608 10.6835 53.3495 9.98145C52.6362 9.28175 51.6111 8.93176 50.2754 8.93176C49.369 8.93176 48.4791 9.09764 47.6043 9.43287C46.7312 9.76752 45.8297 10.2472 44.9036 10.8728L43.803 8.60724C45.9817 7.14069 48.2481 6.40625 50.5976 6.40625C52.9283 6.40625 54.7391 6.99999 56.0345 8.18632C57.3285 9.37294 57.9753 11.0775 57.9753 13.299V19.4156C57.9753 19.825 58.05 20.1171 58.2034 20.289C58.3525 20.4621 58.6119 20.5583 58.9804 20.5811V23.6208C58.6341 23.6856 58.316 23.7288 58.0239 23.751C57.7341 23.7719 57.4681 23.7832 57.2316 23.7832C56.5417 23.74 56.0186 23.5556 55.6628 23.2329C55.307 22.9092 55.0856 22.4782 55.0008 21.9394L54.9015 20.8703C54.1465 21.8644 53.2132 22.6235 52.103 23.1521C50.9913 23.6801 49.7989 23.9444 48.5278 23.9444Z" fill="white"/>
<path fill-rule="evenodd" clip-rule="evenodd" d="M71.989 9.77234C70.6081 9.81461 69.3879 10.1333 68.3319 10.7262C67.2735 11.3208 66.5081 12.1661 66.0342 13.2665V23.6198H62.4746V6.69709H65.7748V10.4845C66.3781 9.31958 67.1502 8.37005 68.0893 7.63677C69.0269 6.9035 70.0254 6.53613 71.0811 6.53613H71.615C71.7568 6.53613 71.8793 6.54684 71.989 6.56885V9.77234Z" fill="white"/>
<path fill-rule="evenodd" clip-rule="evenodd" d="M74.7695 0H78.3282V18.6397C78.3282 19.2644 78.4903 19.7539 78.8154 20.1109C79.1382 20.4655 79.5919 20.645 80.174 20.645C80.4117 20.645 80.6908 20.6076 81.015 20.5309C81.3372 20.4565 81.6391 20.3535 81.9199 20.2241L82.4381 23.1042C81.9199 23.3422 81.3059 23.53 80.5932 23.669C79.8837 23.8108 79.2459 23.8806 78.684 23.8806C77.456 23.8806 76.4946 23.546 75.8047 22.8772C75.1155 22.2094 74.7695 21.2587 74.7695 20.0292V0Z" fill="white"/>
<path fill-rule="evenodd" clip-rule="evenodd" d="M97.4199 13.8814C97.3559 13.1698 97.177 12.5118 96.8864 11.9079C96.5934 11.304 96.2226 10.7922 95.7684 10.371C95.3165 9.95039 94.7884 9.62124 94.1857 9.38472C93.5798 9.14705 92.9447 9.02662 92.2757 9.02662C91.6052 9.02662 90.9764 9.14705 90.3807 9.38472C89.7881 9.62124 89.265 9.95039 88.8134 10.371C88.3606 10.7922 87.9918 11.304 87.7121 11.9079C87.4328 12.5118 87.2579 13.1698 87.1954 13.8814H97.4199ZM92.2757 23.9452C90.9582 23.9452 89.7617 23.7127 88.6834 23.2507C87.6045 22.7855 86.6821 22.1553 85.9176 21.3574C85.1502 20.5593 84.5576 19.6321 84.137 18.5749C83.7157 17.5162 83.5059 16.3953 83.5059 15.2087C83.5059 14.0232 83.7157 12.8948 84.137 11.8263C84.5576 10.7592 85.1502 9.8204 85.9176 9.01331C86.6821 8.20273 87.6045 7.56759 88.6834 7.10296C89.7617 6.6392 90.9686 6.40674 92.3075 6.40674C93.6224 6.40674 94.8148 6.6447 95.8824 7.1183C96.9498 7.59481 97.8608 8.22502 98.6169 9.01331C99.3731 9.80014 99.95 10.717 100.35 11.7638C100.746 12.8088 100.947 13.9037 100.947 15.0457C100.947 15.3059 100.936 15.548 100.915 15.7755C100.894 16.0022 100.871 16.1903 100.849 16.3403H87.2909C87.3567 17.0959 87.5356 17.7762 87.8256 18.3806C88.1166 18.9845 88.4944 19.5076 88.9581 19.9488C89.4216 20.3911 89.9508 20.7319 90.5434 20.9687C91.1368 21.2069 91.7581 21.3242 92.4036 21.3242C92.879 21.3242 93.3476 21.2663 93.8129 21.1467C94.2755 21.0274 94.7013 20.8563 95.0904 20.6291C95.4771 20.4016 95.8239 20.128 96.1259 19.8032C96.4264 19.4792 96.6646 19.1252 96.8372 18.7361L99.8806 19.6086C99.2955 20.8815 98.3306 21.9237 96.9831 22.7325C95.6355 23.5408 94.065 23.9452 92.2757 23.9452Z" fill="white"/>
<path fill-rule="evenodd" clip-rule="evenodd" d="M129.874 23.621H126.316V14.141C126.316 12.5653 126.052 11.412 125.524 10.6779C124.994 9.94402 124.246 9.57868 123.273 9.57868C122.26 9.57868 121.333 9.95039 120.492 10.6941C119.65 11.4389 119.045 12.4044 118.68 13.5907V23.621H115.12V14.141C115.12 12.5451 114.866 11.3842 114.36 10.6625C113.852 9.93938 113.103 9.57868 112.111 9.57868C111.119 9.57868 110.195 9.94402 109.345 10.6779C108.491 11.412 107.882 12.3711 107.516 13.5592V23.621H103.955V6.69739H107.192V10.0957C107.862 8.91054 108.74 7.99835 109.83 7.36177C110.919 6.72489 112.164 6.40674 113.567 6.40674C114.991 6.40674 116.101 6.77352 116.899 7.50709C117.697 8.24037 118.205 9.15718 118.422 10.2578C119.132 9.00636 120.027 8.05336 121.105 7.39448C122.184 6.73531 123.403 6.40674 124.765 6.40674C125.755 6.40674 126.58 6.59606 127.238 6.97298C127.895 7.35076 128.419 7.85216 128.809 8.47833C129.195 9.10247 129.47 9.8314 129.632 10.6625C129.795 11.4934 129.874 12.3711 129.874 13.2992V23.621Z" fill="white"/>
<path fill-rule="evenodd" clip-rule="evenodd" d="M86.4819 37.4127C86.1748 37.4127 85.9203 37.3337 85.7185 37.1756C85.5168 37.0178 85.416 36.7854 85.416 36.4782C85.416 36.4342 85.418 36.3882 85.4227 36.3401C85.427 36.2921 85.4334 36.2414 85.4424 36.1887L86.5479 31.0303H85.6268L85.7452 30.4907H86.6663L87.1535 28.1484H87.8113L87.3243 30.4907H88.8375L88.7191 31.0303H87.2059L86.2185 35.6624C86.1574 35.9432 86.1264 36.1187 86.1264 36.1887C86.1264 36.3908 86.1901 36.5419 86.3175 36.6427C86.4446 36.7437 86.6003 36.7943 86.7847 36.7943C86.9162 36.7943 87.0412 36.781 87.1596 36.7547C87.278 36.7281 87.3854 36.6953 87.4818 36.656C87.5785 36.6163 87.6599 36.5813 87.7256 36.5506C87.7913 36.5202 87.8373 36.4959 87.8637 36.4782L87.9424 37.0045C87.9074 37.0309 87.8437 37.0662 87.7519 37.1099C87.6599 37.1539 87.5475 37.1999 87.4161 37.2483C87.2847 37.2963 87.1399 37.3357 86.9819 37.3667C86.8241 37.3971 86.6574 37.4127 86.4819 37.4127Z" fill="white"/>
<path fill-rule="evenodd" clip-rule="evenodd" d="M92.8657 30.9119C92.4532 30.9119 92.0739 30.9889 91.7274 31.1423C91.3806 31.296 91.0717 31.4972 90.7996 31.7476C90.5278 31.9975 90.2953 32.2849 90.1025 32.6094C89.9094 32.934 89.7644 33.2672 89.668 33.6093C90.0365 33.6357 90.3674 33.6536 90.6615 33.662C90.9553 33.671 91.2425 33.6753 91.5233 33.6753C92.0673 33.6753 92.5255 33.638 92.8984 33.5633C93.2713 33.4889 93.5718 33.3859 93.7999 33.2541C94.028 33.1227 94.1924 32.967 94.2935 32.7869C94.3942 32.6074 94.4449 32.4077 94.4449 32.1882C94.4449 31.9691 94.3988 31.7783 94.3065 31.6159C94.2144 31.4538 94.096 31.3198 93.9513 31.2147C93.8065 31.109 93.6378 31.0326 93.4447 30.9843C93.2516 30.9359 93.0585 30.9119 92.8657 30.9119ZM91.4573 37.4651C91.0451 37.4651 90.6786 37.3883 90.3584 37.2349C90.0382 37.0815 89.7664 36.8731 89.5426 36.6099C89.3192 36.3468 89.1501 36.0396 89.036 35.6888C88.922 35.3379 88.8652 34.9647 88.8652 34.5699C88.8652 34.0352 88.9683 33.5153 89.1747 33.0107C89.3808 32.5064 89.668 32.0588 90.0365 31.6686C90.4047 31.2784 90.837 30.9646 91.3326 30.7278C91.8282 30.4907 92.3657 30.3726 92.9444 30.3726C93.2166 30.3726 93.4797 30.4119 93.7342 30.4907C93.9886 30.5697 94.2144 30.6861 94.4119 30.8395C94.6093 30.9932 94.7671 31.1837 94.8858 31.4118C95.0042 31.6402 95.0632 31.9034 95.0632 32.2016C95.0632 33.5173 93.8702 34.1753 91.484 34.1753C91.2032 34.1753 90.907 34.171 90.5958 34.1623C90.284 34.1536 89.9398 34.1356 89.5626 34.1096C89.5539 34.1799 89.5473 34.2543 89.5429 34.3334C89.5386 34.4121 89.5363 34.4868 89.5363 34.5568C89.5363 34.8817 89.5777 35.1888 89.6613 35.478C89.7444 35.7675 89.8718 36.0199 90.0429 36.2347C90.214 36.4498 90.4288 36.6209 90.6876 36.748C90.9461 36.8751 91.2469 36.9388 91.589 36.9388C91.8082 36.9388 92.0343 36.9061 92.2667 36.8403C92.4989 36.7743 92.7207 36.682 92.9311 36.5639C93.1419 36.4455 93.337 36.3004 93.517 36.1294C93.6965 35.9586 93.8479 35.7675 93.971 35.557L94.5236 35.7281C94.3655 35.9916 94.1748 36.2281 93.9513 36.4388C93.7272 36.6493 93.4817 36.8314 93.2142 36.9848C92.9465 37.1385 92.6633 37.2569 92.3655 37.3403C92.0673 37.4234 91.7645 37.4651 91.4573 37.4651Z" fill="white"/>
<path fill-rule="evenodd" clip-rule="evenodd" d="M96.6936 37.4127C96.3954 37.4127 96.163 37.3317 95.9959 37.169C95.8292 37.0068 95.7461 36.7854 95.7461 36.5046C95.7461 36.4082 95.7594 36.2988 95.7855 36.1754L97.5754 27.7275H98.2337L96.4831 35.9783C96.4742 36.0223 96.4675 36.0617 96.4632 36.0967C96.4588 36.132 96.4568 36.1714 96.4568 36.2151C96.4568 36.3995 96.5112 36.544 96.6212 36.6493C96.7306 36.7547 96.891 36.8074 97.1015 36.8074C97.1979 36.8074 97.3119 36.7964 97.4437 36.7744C97.5751 36.7527 97.6981 36.7197 97.8122 36.6757V37.2023C97.6628 37.2633 97.4767 37.314 97.2526 37.3534C97.0291 37.3927 96.8427 37.4127 96.6936 37.4127Z" fill="white"/>
<path fill-rule="evenodd" clip-rule="evenodd" d="M102.774 30.9119C102.361 30.9119 101.982 30.9889 101.636 31.1423C101.289 31.296 100.98 31.4972 100.708 31.7476C100.436 31.9975 100.204 32.2849 100.011 32.6094C99.8176 32.934 99.6726 33.2672 99.5762 33.6093C99.9447 33.6357 100.276 33.6536 100.57 33.662C100.864 33.671 101.151 33.6753 101.432 33.6753C101.975 33.6753 102.434 33.638 102.807 33.5633C103.179 33.4889 103.48 33.3859 103.708 33.2541C103.936 33.1227 104.101 32.967 104.202 32.7869C104.302 32.6074 104.353 32.4077 104.353 32.1882C104.353 31.9691 104.307 31.7783 104.215 31.6159C104.123 31.4538 104.004 31.3198 103.859 31.2147C103.715 31.109 103.546 31.0326 103.353 30.9843C103.16 30.9359 102.967 30.9119 102.774 30.9119ZM101.366 37.4651C100.953 37.4651 100.587 37.3883 100.267 37.2349C99.9464 37.0815 99.6746 36.8731 99.4508 36.6099C99.2274 36.3468 99.0583 36.0396 98.9442 35.6888C98.8302 35.3379 98.7734 34.9647 98.7734 34.5699C98.7734 34.0352 98.8765 33.5153 99.0829 33.0107C99.289 32.5064 99.5762 32.0588 99.9447 31.6686C100.313 31.2784 100.745 30.9646 101.241 30.7278C101.736 30.4907 102.274 30.3726 102.853 30.3726C103.124 30.3726 103.388 30.4119 103.642 30.4907C103.897 30.5697 104.123 30.6861 104.32 30.8395C104.517 30.9932 104.675 31.1837 104.794 31.4118C104.912 31.6402 104.971 31.9034 104.971 32.2016C104.971 33.5173 103.778 34.1753 101.392 34.1753C101.111 34.1753 100.815 34.171 100.504 34.1623C100.192 34.1536 99.848 34.1356 99.4708 34.1096C99.4621 34.1799 99.4555 34.2543 99.4511 34.3334C99.4468 34.4121 99.4445 34.4868 99.4445 34.5568C99.4445 34.8817 99.4859 35.1888 99.5695 35.478C99.6526 35.7675 99.78 36.0199 99.9511 36.2347C100.122 36.4498 100.337 36.6209 100.596 36.748C100.854 36.8751 101.155 36.9388 101.497 36.9388C101.716 36.9388 101.942 36.9061 102.175 36.8403C102.407 36.7743 102.629 36.682 102.839 36.5639C103.05 36.4455 103.245 36.3004 103.425 36.1294C103.605 35.9586 103.756 35.7675 103.879 35.557L104.432 35.7281C104.273 35.9916 104.083 36.2281 103.859 36.4388C103.635 36.6493 103.39 36.8314 103.122 36.9848C102.855 37.1385 102.572 37.2569 102.274 37.3403C101.975 37.4234 101.673 37.4651 101.366 37.4651Z" fill="white"/>
<path fill-rule="evenodd" clip-rule="evenodd" d="M108.17 37.4651C107.775 37.4651 107.419 37.3904 107.104 37.2413C106.788 37.0925 106.518 36.8864 106.294 36.6229C106.07 36.3595 105.9 36.0526 105.781 35.7018C105.663 35.3509 105.604 34.9737 105.604 34.5699C105.604 34.0086 105.713 33.4759 105.933 32.9713C106.152 32.4667 106.448 32.0218 106.821 31.6356C107.194 31.2497 107.624 30.9426 108.11 30.7144C108.597 30.4866 109.113 30.3726 109.657 30.3726C110.253 30.3726 110.747 30.513 111.137 30.7935C111.527 31.0743 111.784 31.4645 111.907 31.9645L111.209 32.1752C111.104 31.798 110.898 31.5021 110.591 31.2871C110.284 31.072 109.92 30.9646 109.499 30.9646C109.086 30.9646 108.687 31.0589 108.301 31.2474C107.915 31.4361 107.573 31.6903 107.275 32.0105C106.977 32.3312 106.735 32.7038 106.551 33.1291C106.367 33.5546 106.275 34.0042 106.275 34.4781C106.275 34.8113 106.323 35.1251 106.419 35.4187C106.516 35.7128 106.65 35.9672 106.821 36.182C106.992 36.3971 107.2 36.5662 107.446 36.6886C107.691 36.8117 107.959 36.8731 108.248 36.8731C108.476 36.8731 108.709 36.838 108.946 36.7677C109.182 36.6976 109.407 36.6056 109.617 36.4915C109.827 36.3774 110.014 36.2437 110.176 36.09C110.338 35.9366 110.463 35.7765 110.551 35.6097L111.157 35.7938C111.025 36.0309 110.852 36.2527 110.637 36.4585C110.422 36.6646 110.183 36.8424 109.92 36.9915C109.656 37.1408 109.374 37.2569 109.071 37.3403C108.768 37.4234 108.467 37.4651 108.17 37.4651Z" fill="white"/>
<path fill-rule="evenodd" clip-rule="evenodd" d="M114.906 36.8726C115.301 36.8726 115.694 36.7762 116.084 36.5831C116.474 36.3903 116.821 36.1315 117.124 35.807C117.427 35.4821 117.672 35.1073 117.861 34.6817C118.049 34.2562 118.144 33.8109 118.144 33.346C118.144 33.0128 118.096 32.701 117.999 32.4118C117.902 32.122 117.769 31.8702 117.598 31.6551C117.427 31.44 117.218 31.2712 116.973 31.1485C116.727 31.0254 116.46 30.9641 116.17 30.9641C115.775 30.9641 115.387 31.0608 115.005 31.2536C114.624 31.4467 114.279 31.7075 113.972 32.0366C113.665 32.3658 113.417 32.7453 113.229 33.1749C113.04 33.6048 112.946 34.0564 112.946 34.5303C112.946 34.8638 112.994 35.173 113.091 35.4581C113.187 35.7433 113.321 35.9911 113.492 36.2012C113.663 36.412 113.869 36.5764 114.11 36.6951C114.352 36.8135 114.617 36.8726 114.906 36.8726ZM114.788 37.4646C114.393 37.4646 114.04 37.3902 113.729 37.2411C113.417 37.092 113.154 36.8882 112.939 36.6291C112.724 36.3703 112.558 36.0678 112.439 35.721C112.32 35.3747 112.262 35.0042 112.262 34.6093C112.262 34.0564 112.373 33.5235 112.597 33.0102C112.821 32.4972 113.121 32.0456 113.499 31.6551C113.876 31.2646 114.308 30.9531 114.795 30.7206C115.282 30.4884 115.784 30.3721 116.302 30.3721C116.687 30.3721 117.036 30.4491 117.348 30.6022C117.659 30.7559 117.922 30.9621 118.137 31.2209C118.352 31.4794 118.519 31.7845 118.637 32.1354C118.756 32.4865 118.815 32.8591 118.815 33.2539C118.815 33.7979 118.703 34.3242 118.479 34.8328C118.256 35.3417 117.957 35.7916 117.584 36.1816C117.211 36.5721 116.784 36.8836 116.301 37.116C115.819 37.3485 115.314 37.4646 114.788 37.4646Z" fill="white"/>
<path fill-rule="evenodd" clip-rule="evenodd" d="M120.881 30.4907H121.5L121.144 32.1225C121.53 31.5696 121.974 31.1403 122.474 30.8328C122.974 30.526 123.482 30.3726 124 30.3726C124.535 30.3726 124.928 30.5367 125.178 30.8659C125.428 31.195 125.553 31.6619 125.553 32.2673C125.921 31.6443 126.366 31.173 126.889 30.8528C127.41 30.5326 127.948 30.3726 128.5 30.3726C129.027 30.3726 129.409 30.5193 129.645 30.8132C129.882 31.1073 130.001 31.5259 130.001 32.0701C130.001 32.456 129.948 32.8989 129.843 33.3992L129 37.3336H128.342L129.158 33.5173C129.246 33.0877 129.29 32.6972 129.29 32.346C129.29 31.4338 128.913 30.9776 128.158 30.9776C127.895 30.9776 127.634 31.0303 127.375 31.1354C127.117 31.241 126.869 31.3855 126.632 31.5696C126.395 31.754 126.173 31.9778 125.967 32.2409C125.761 32.5044 125.583 32.7936 125.434 33.1094L124.552 37.3336H123.894L124.697 33.5173C124.75 33.2805 124.787 33.0634 124.809 32.8659C124.831 32.6685 124.842 32.4867 124.842 32.32C124.842 31.4251 124.469 30.9776 123.724 30.9776C123.46 30.9776 123.197 31.0283 122.934 31.129C122.671 31.2297 122.421 31.3748 122.184 31.5632C121.947 31.752 121.728 31.9758 121.526 32.2343C121.324 32.4931 121.144 32.7805 120.986 33.0964L120.091 37.3336H119.434L120.881 30.4907Z" fill="white"/>
</g>
<defs>
<clipPath id="clip0_207_380">
<rect width="130" height="38" fill="white"/>
</clipPath>
</defs>
</svg>
