<svg width="74" height="88" viewBox="0 0 74 88" fill="none" xmlns="http://www.w3.org/2000/svg">
<path d="M4.1605 83.9124C5.6605 85.3824 7.5105 86.4824 9.5205 87.0724C10.5305 87.3624 11.5705 87.5324 12.6205 87.5724C13.2105 87.5924 13.4805 87.5824 13.8905 87.5924H15.0205H24.0805L60.3405 87.5724C61.7105 87.5524 63.2705 87.3624 64.7405 86.8424C66.2105 86.3224 67.5805 85.5024 68.5605 84.4924C69.5505 83.5024 70.1405 82.3724 70.2505 81.4324C70.3705 80.4824 70.0005 79.7324 69.2205 79.2824C67.4505 78.3224 66.3305 79.1924 65.0705 80.0324C63.8505 80.9224 62.1505 81.9224 60.6405 81.9524L43.0505 81.8324H25.3405H16.4805H14.2705H13.1605C12.8605 81.8324 12.5905 81.8224 12.3105 81.7824C11.1905 81.6524 10.1005 81.2624 9.1705 80.6224C8.2405 79.9924 7.4505 79.1324 6.9305 78.1324C6.3805 77.0724 5.9805 75.8624 5.8005 74.6424C5.4305 72.2024 5.9305 69.6424 7.1705 67.4924C7.7905 66.4224 8.5805 65.4524 9.5105 64.6324C10.4905 63.7824 11.6805 62.9024 12.8205 62.1224C15.1505 60.5524 17.6305 59.2224 20.2205 58.1424C25.3905 55.9824 31.0105 54.9424 36.5605 55.0424C42.1205 55.1524 47.6205 56.4624 52.6105 58.7824C55.1005 59.9524 57.4505 61.3824 59.6305 63.0224C60.7205 63.8324 61.7505 64.7224 62.7505 65.6424C63.6405 66.4724 64.1805 67.2224 64.6605 68.1624C65.5505 69.8824 65.8405 72.1624 66.0505 74.1124C66.1705 75.0924 66.3105 76.0224 66.7005 76.8824C67.0605 77.7224 67.6905 78.5424 68.8305 79.0624C69.7505 79.4824 70.6705 79.3224 71.5305 78.6024C72.3705 77.8924 73.0905 76.6124 73.5005 75.0224C73.9105 73.4324 73.9605 71.5524 73.6405 69.7124C73.3305 67.8724 72.6405 66.1024 71.8305 64.6424C70.9205 62.9724 69.7005 61.4424 68.2705 60.1824C67.0005 59.0824 65.8105 58.1724 64.5005 57.2524C61.9105 55.4524 59.1505 53.9124 56.2705 52.6524C50.7605 50.2424 44.8005 48.9124 38.8105 48.7124C38.7805 48.6224 38.7505 48.5324 38.7605 48.4524C39.3005 43.1824 38.0605 37.9024 40.1005 32.6324C42.6505 32.0924 45.0905 30.9724 47.1105 29.3124C50.0605 26.9124 52.1505 23.4824 52.9105 19.7324C53.6405 16.0024 53.0705 12.0124 51.2605 8.65242C49.4405 5.30242 46.4605 2.63242 42.9305 1.19242C41.7805 0.742419 40.3105 0.0424188 39.0105 0.112419C37.7205 0.132419 36.7505 0.852419 36.7105 2.66242C36.6705 4.66242 37.3105 5.37242 38.0805 5.69242C38.8505 6.01242 39.9005 5.99242 40.6305 6.32242C42.8805 7.28242 44.8305 8.96242 46.0105 11.0824C47.2105 13.1824 47.7005 15.6824 47.3205 18.0824C46.7205 22.9124 42.3405 27.0224 37.4405 27.2224C35.0005 27.4224 32.5605 26.6524 30.6105 25.2424C28.6505 23.8224 27.2705 21.6924 26.7205 19.4224C26.1805 17.1424 26.5005 14.6924 27.5505 12.7324C28.6105 10.7624 30.3605 9.24242 32.3205 8.55242C33.2505 8.22242 34.3105 8.03242 35.1305 7.40242C35.5505 7.07242 35.9205 6.62242 36.2205 5.96242C36.5105 5.28242 36.7305 4.35242 36.7105 3.11242C36.6905 2.09242 36.4205 1.36242 35.9105 0.852419C35.4005 0.322419 34.6705 0.0724189 33.8305 0.0124189C32.1505 -0.107581 30.1705 0.662419 28.7305 1.44242C25.4305 3.20242 22.7105 6.06242 21.2305 9.51242C19.7205 12.9524 19.4305 16.8524 20.3905 20.4424C21.3005 24.0524 23.5105 27.2324 26.3805 29.4724C28.2205 30.9124 30.3805 31.9324 32.6505 32.4824C32.7105 34.8824 33.1405 37.2924 33.1405 39.6924C33.1405 42.5824 33.1205 45.4824 33.1605 48.3724C33.1605 48.5124 33.0805 48.6724 33.0505 48.8324C28.4405 49.2324 23.8905 50.2924 19.6005 51.9924C16.6905 53.1324 13.9005 54.5524 11.2605 56.2124C9.9505 57.0624 8.6705 57.9424 7.4405 58.9024C6.2905 59.7724 4.7905 61.0424 3.6805 62.4724C1.3005 65.4524 -0.0295033 69.2624 0.000496741 73.1024C0.000496741 75.0224 0.350497 76.9424 1.0105 78.7424C1.6205 80.4624 2.7005 82.4424 4.2205 83.8824L4.1605 83.9124Z" fill="black"/>
</svg>
