<svg width="128" height="128" viewBox="0 0 128 128" fill="none" xmlns="http://www.w3.org/2000/svg">
<g clip-path="url(#clip0_909_3)">
<path d="M64 128C99.3462 128 128 99.3462 128 64C128 28.6538 99.3462 0 64 0C28.6538 0 0 28.6538 0 64C0 99.3462 28.6538 128 64 128Z" fill="url(#paint0_linear_909_3)"/>
<path d="M106.317 112.014L49.1669 38.4H38.3999V89.579H47.0139V49.339L99.5539 117.223C101.921 115.639 104.181 113.898 106.317 112.014Z" fill="url(#paint1_linear_909_3)"/>
<path d="M81.7778 38.4H90.3108V89.6H81.7778V38.4Z" fill="url(#paint2_linear_909_3)"/>
</g>
<defs>
<linearGradient id="paint0_linear_909_3" x1="0" y1="0" x2="128" y2="128" gradientUnits="userSpaceOnUse">
<stop offset="0.206211" stop-color="#F5BC46"/>
<stop offset="0.515" stop-color="#7F06B0"/>
<stop offset="0.679102" stop-color="#C86C6C"/>
</linearGradient>
<linearGradient id="paint1_linear_909_3" x1="77.5109" y1="82.8443" x2="102.755" y2="114.133" gradientUnits="userSpaceOnUse">
<stop stop-color="white"/>
<stop offset="1" stop-color="white" stop-opacity="0"/>
</linearGradient>
<linearGradient id="paint2_linear_909_3" x1="86.0441" y1="38.4" x2="85.9012" y2="75.9999" gradientUnits="userSpaceOnUse">
<stop stop-color="white"/>
<stop offset="1" stop-color="white" stop-opacity="0"/>
</linearGradient>
<clipPath id="clip0_909_3">
<rect width="128" height="128" fill="white"/>
</clipPath>
</defs>
</svg>
