<svg width="80" height="76" viewBox="0 0 80 76" fill="none" xmlns="http://www.w3.org/2000/svg">
<path d="M46.9946 38C46.9946 42.2236 43.7532 45.6476 39.7549 45.6476C35.7565 45.6476 32.5151 42.2236 32.5151 38C32.5151 33.7763 35.7565 30.3524 39.7549 30.3524C43.7532 30.3524 46.9946 33.7763 46.9946 38Z" fill="url(#paint0_linear_902_92)"/>
<path fill-rule="evenodd" clip-rule="evenodd" d="M62.8712 23.8453C64.3953 24.3148 65.856 24.8515 67.2531 25.3882C75.1914 28.6082 79.5098 33.0358 79.5098 38C79.5098 42.9642 75.1914 47.3918 67.2531 50.6118C65.856 51.2156 64.3953 51.6852 62.8712 52.1547C63.2522 53.7648 63.5698 55.3748 63.8238 56.9177C65.1574 65.7057 63.6968 71.9445 59.6324 74.4267C58.4258 75.1646 57.0921 75.5 55.568 75.5C51.1225 75.5 45.4705 72.0116 39.7549 66.1753C34.1029 72.0116 28.4508 75.5 23.9419 75.5C22.4177 75.5 21.0841 75.1646 19.8775 74.4267C15.8131 72.0116 14.3524 65.7728 15.686 56.9177C15.9401 55.3748 16.2576 53.7648 16.6386 52.1547C15.1145 51.6852 13.6538 51.1485 12.2567 50.6118C4.38193 47.3918 0 42.9642 0 38C0 33.0358 4.31843 28.6082 12.2567 25.3882C13.6538 24.7844 15.1145 24.3148 16.6386 23.8453C16.2576 22.2352 15.9401 20.6252 15.686 19.0823C14.3524 10.2943 15.8131 4.05546 19.8775 1.57334C21.0841 0.83542 22.4177 0.5 23.9419 0.5C28.3873 0.5 34.0394 3.98837 39.7549 9.82469C45.4705 3.98837 51.1225 0.5 55.568 0.5C57.0921 0.5 58.4258 0.83542 59.6324 1.57334C63.6968 3.98837 65.1574 10.2272 63.8238 19.0823C63.5698 20.6252 63.2522 22.2352 62.8712 23.8453ZM60.2674 18.5456C61.347 11.5018 60.458 6.53757 57.8542 4.92755C57.2191 4.52504 56.4571 4.32379 55.6315 4.32379C51.7576 4.32379 46.9946 7.678 42.2952 12.5751C44.5179 15.1914 46.7406 18.076 48.8998 21.2961C52.5832 21.6315 56.076 22.1682 59.3783 22.9732C59.7594 21.4302 60.0769 19.9544 60.2674 18.5456ZM46.8676 51.1485C48.2648 49.0018 49.5984 46.8551 50.7415 44.7084C51.948 42.4278 53.0275 40.2142 54.107 38.0007C53.0909 35.7869 51.9481 33.5054 50.7415 31.2916C49.5984 29.1449 48.3283 26.9982 46.9311 24.8515C44.6449 24.6503 42.2952 24.5832 39.8184 24.5832C37.4052 24.5832 35.0555 24.6503 32.7057 24.8515C31.3086 26.9982 29.975 29.1449 28.8318 31.2916C27.6252 33.5054 26.4821 35.7862 25.466 38C26.4821 40.2138 27.6252 42.4946 28.8318 44.7084C29.975 46.8551 31.2451 49.0018 32.6422 51.1485C34.9284 51.3497 37.2782 51.4168 39.7549 51.4168C42.1682 51.4168 44.5179 51.3497 46.8676 51.1485ZM58.4258 49.4043C57.7272 47.1234 56.9651 44.8426 56.0125 42.4946C55.7674 42.9653 55.5223 43.4443 55.2745 43.9287C54.816 44.8248 54.348 45.7393 53.8533 46.6538C53.24 47.8907 52.5287 49.0759 51.8485 50.2094C51.754 50.3669 51.6601 50.5234 51.5671 50.6789C53.9803 50.3435 56.2665 49.941 58.4258 49.4043ZM35.373 55.1064C36.7701 57.0519 38.2308 58.9302 39.7549 60.6744C41.2791 58.9302 42.7397 57.0519 44.1368 55.1064C42.6762 55.1735 41.2156 55.2406 39.7549 55.2406C38.2943 55.2406 36.8336 55.1735 35.373 55.1064ZM21.0841 49.3372C23.2433 49.8739 25.5295 50.2764 27.9428 50.6118C27.7523 50.2764 27.5617 49.9452 27.3712 49.614C26.7997 48.6203 26.2281 47.6266 25.6565 46.5197C25.0928 45.5273 24.5639 44.4981 24.044 43.4866C23.861 43.1306 23.6792 42.7768 23.4973 42.4275C22.5447 44.7755 21.7826 47.1234 21.0841 49.3372ZM21.0841 26.5957C21.7826 28.8766 22.5447 31.1574 23.4973 33.5054C23.7424 33.0346 23.9875 32.5556 24.2354 32.0712C24.6939 31.1751 25.1618 30.2606 25.6565 29.3462C26.2698 28.1093 26.9811 26.9241 27.6613 25.7907C27.7558 25.6332 27.8498 25.4766 27.9428 25.3211C25.5295 25.6565 23.2433 26.059 21.0841 26.5957ZM44.1368 20.8936C42.7397 18.9481 41.2791 17.0698 39.7549 15.3256C38.2308 17.0698 36.7701 18.9481 35.373 20.8936C36.8336 20.8265 38.2943 20.7594 39.7549 20.7594C41.2156 20.7594 42.6762 20.8265 44.1368 20.8936ZM51.5671 25.3882L53.8533 29.4132C54.6154 30.7549 55.3139 32.1637 56.0125 33.5724C56.9651 31.2245 57.7272 28.8766 58.4258 26.6628C56.2665 26.1261 53.9803 25.7236 51.5671 25.3882ZM21.6556 4.92755C19.0519 6.53757 18.1628 11.5018 19.2424 18.5456C19.2665 18.6792 19.2906 18.8134 19.3148 18.9482C19.5457 20.2349 19.7866 21.5765 20.1315 22.9732C23.4338 22.2352 26.9267 21.6315 30.61 21.2961C32.7692 18.076 34.9919 15.1243 37.2147 12.5751C32.4517 7.61091 27.6887 4.32379 23.8784 4.32379C23.0528 4.32379 22.2907 4.52504 21.6556 4.92755ZM13.5268 29.0107C7.17621 31.4928 3.55635 34.847 3.55635 38C3.55635 41.7567 8.82737 45.7817 17.5912 48.4651C18.5438 45.1109 19.8775 41.6225 21.4016 38.0671C19.8775 34.5116 18.6073 30.9562 17.5912 27.602C16.1941 28.0045 14.797 28.4741 13.5268 29.0107ZM19.2424 57.4544C18.1628 64.4982 19.0519 69.4624 21.6556 71.0724C22.2907 71.475 23.0528 71.6762 23.8784 71.6762C27.7522 71.6762 32.5152 68.322 37.2147 63.4249C34.9919 60.8086 32.7692 57.924 30.61 54.7039C26.9267 54.3685 23.4338 53.8318 20.1315 53.0268C19.7504 54.5698 19.4329 56.0456 19.2424 57.4544ZM57.8542 71.0724C60.458 69.4624 61.347 64.4982 60.2674 57.4544C60.2433 57.3208 60.2193 57.1866 60.1951 57.0518C59.9641 55.7651 59.7233 54.4234 59.3783 53.0268C56.076 53.7648 52.5832 54.3685 48.8998 54.7039C46.7406 57.924 44.5179 60.8757 42.2952 63.4249C47.0581 68.3891 51.8211 71.6762 55.6315 71.6762C56.4571 71.6762 57.2191 71.475 57.8542 71.0724ZM61.9186 48.398C63.3157 47.9955 64.7129 47.5259 65.983 46.9893C72.2701 44.5072 75.9535 41.153 75.9535 38C75.9535 34.2433 70.6825 30.2182 61.9186 27.5349C60.966 30.8891 59.6324 34.3775 58.1082 37.9329C59.6324 41.4884 60.9025 45.0438 61.9186 48.398Z" fill="url(#paint1_linear_902_92)"/>
<defs>
<linearGradient id="paint0_linear_902_92" x1="19.3304" y1="2.619" x2="63.7161" y2="71.3426" gradientUnits="userSpaceOnUse">
<stop offset="0.15" stop-color="#F5BC45"/>
<stop offset="0.505" stop-color="#7A00B4"/>
<stop offset="0.79" stop-color="#C76B6B"/>
</linearGradient>
<linearGradient id="paint1_linear_902_92" x1="19.3304" y1="2.619" x2="63.7161" y2="71.3426" gradientUnits="userSpaceOnUse">
<stop offset="0.15" stop-color="#F5BC45"/>
<stop offset="0.505" stop-color="#7A00B4"/>
<stop offset="0.79" stop-color="#C76B6B"/>
</linearGradient>
</defs>
</svg>
