<svg width="22" height="20" viewBox="0 0 22 20" fill="none" xmlns="http://www.w3.org/2000/svg">
<path d="M7 5H3C2.46957 5 1.96086 5.21071 1.58579 5.58579C1.21071 5.96086 1 6.46957 1 7V17C1 17.5304 1.21071 18.0391 1.58579 18.4142C1.96086 18.7893 2.46957 19 3 19H19C19.5304 19 20.0391 18.7893 20.4142 18.4142C20.7893 18.0391 21 17.5304 21 17V7C21 6.46957 20.7893 5.96086 20.4142 5.58579C20.0391 5.21071 19.5304 5 19 5H15M7 5V1.6C7 1.44087 7.06321 1.28826 7.17574 1.17574C7.28826 1.06321 7.44087 1 7.6 1H14.4C14.5591 1 14.7117 1.06321 14.8243 1.17574C14.9368 1.28826 15 1.44087 15 1.6V5M7 5H15" stroke="white"/>
</svg>
